<svg width="128" height="128" xmlns="http://www.w3.org/2000/svg">
 <!-- Created with SVG Editor - http://github.com/mzalive/SVG Editor/ -->
 <g>
  <title>background</title>
  <rect x="-1" y="-1" width="130" height="130" id="canvas_background" fill="none"/>
  <g id="canvasGrid" display="none">
   <rect id="svg_2" width="100%" height="100%" x="0" y="0" stroke-width="0" fill="url(#gridpattern)"/>
  </g>
 </g>
 <g>
  <title>Layer 1</title>
  <rect fill="#000000" stroke-width="1.5" x="8.50003" y="16.484401" width="110.333277" height="5.33333" id="svg_10" rx="5" stroke="#000"/>
  <rect stroke="#000" fill="#000000" stroke-width="1.5" x="8.166697" y="20.151066" width="6.333333" height="71.666644" id="svg_11"/>
  <rect stroke="#000" fill="#000000" stroke-width="1.5" x="112.499974" y="19.151067" width="6.333333" height="72.333316" id="svg_12"/>
  <rect stroke="#000" fill="#000000" stroke-width="1.5" stroke-opacity="null" x="44.666677" y="107.151007" width="8.000031" height="5.999994" id="svg_14" rx="3"/>
  <line fill="none" stroke="#000" stroke-opacity="null" x1="148.666625" y1="104.151019" x2="148.666625" y2="103.817686" id="svg_19" stroke-linejoin="null" stroke-linecap="null"/>
  <defs>
   <style>.cls-1{fill:none;}</style>
  </defs>
  <g stroke="null" id="svg_32">
   <g stroke="null" id="svg_25" transform="matrix(4.291692783751014,0,0,3.604193556132899,172.87231742533677,175.4065239542693) ">
    <path stroke="null" d="m-15.60116,-22.12989l-20,0a3,3 0 0 1 -3,-3l0,-16a3,3 0 0 1 3,-3l20,0a3,3 0 0 1 3,3l0,16a3,3 0 0 1 -3,3zm-20,-20a1,1 0 0 0 -1,1l0,16a1,1 0 0 0 1,1l20,0a1,1 0 0 0 1,-1l0,-16a1,1 0 0 0 -1,-1l-20,0z" id="svg_27"/>
    <path stroke="null" d="m-20.60116,-34.12989a3,3 0 1 1 3,-3a3,3 0 0 1 -3,3zm0,-4a1,1 0 1 0 1,1a1,1 0 0 0 -1,-1z" id="svg_28"/>
    <path stroke="null" d="m-15.60116,-22.12989a1,1 0 0 1 -0.83,-0.45l-4.34,-6.5a1,1 0 0 0 -1.66,0l-0.34,0.5a1,1 0 0 1 -1.66,-1.1l0.33,-0.51a3,3 0 0 1 5,0l4.33,6.51a1,1 0 0 1 -0.28,1.38a0.94,0.94 0 0 1 -0.55,0.17z" id="svg_29"/>
    <path stroke="null" d="m-35.60116,-22.12989a1,1 0 0 1 -0.54,-0.16a1,1 0 0 1 -0.3,-1.38l6.23,-9.62a3,3 0 0 1 2.5,-1.37l0,0a3,3 0 0 1 2.5,1.34l6.42,9.64a1,1 0 0 1 -1.66,1.1l-6.43,-9.63a1,1 0 0 0 -0.83,-0.45l0,0a1,1 0 0 0 -0.83,0.46l-6.22,9.61a1,1 0 0 1 -0.84,0.46z" id="svg_30"/>
   </g>
   <g stroke="null" id="svg_24" transform="matrix(4.291692783751014,0,0,3.604193556132899,172.87231742533677,175.4065239542693) ">
    <rect stroke="null" class="cls-1" height="32" width="32" id="svg_31" y="-49.129891" x="-41.601161"/>
   </g>
  </g>
  <rect stroke="#000" fill="#000000" stroke-width="1.5" x="8.166699" y="89.817692" width="110.666612" height="6.33333" id="svg_33" rx="3"/>
  <rect stroke="#000" fill="#000000" stroke-width="1.5" stroke-opacity="null" x="59.999985" y="107.151007" width="8.000031" height="5.999994" id="svg_3" rx="3"/>
  <rect stroke="#000" fill="#000000" stroke-width="1.5" stroke-opacity="null" x="75.666643" y="107.151007" width="8.000031" height="5.999994" id="svg_4" rx="3"/>
 </g>
</svg>