<svg width="128" height="128" xmlns="http://www.w3.org/2000/svg">
 <!-- Created with SVG Editor - http://github.com/mzalive/SVG Editor/ -->
 <g>
  <title>background</title>
  <rect x="-1" y="-1" width="130" height="130" id="canvas_background" fill="none"/>
  <g id="canvasGrid" display="none">
   <rect id="svg_2" width="100%" height="100%" x="0" y="0" stroke-width="0" fill="url(#gridpattern)"/>
  </g>
 </g>
 <g>
  <title>Layer 1</title>
  <rect stroke="#000" fill="#000000" stroke-width="1.5" x="8.50003" y="32.484385" width="6.333333" height="60.999986" id="svg_11"/>
  <rect stroke="#000" fill="#000000" stroke-width="1.5" x="112.833307" y="32.817719" width="6.333333" height="58.999997" id="svg_12"/>
  <line fill="none" stroke="#000" stroke-opacity="null" x1="148.666625" y1="104.151019" x2="148.666625" y2="103.817686" id="svg_19" stroke-linejoin="null" stroke-linecap="null"/>
  <defs>
   <style>.cls-1{fill:none;}</style>
  </defs>
  <rect stroke="#000" fill="#000000" stroke-width="1.5" x="8.666694" y="90.81769" width="110.666612" height="6.33333" id="svg_33" rx="3"/>
  <g id="svg_31">
   <g transform="matrix(64.00015258798157,0,0,64.00015258798157,0,0) " id="svg_9">
    <g id="svg_10">
     <polygon id="svg_13" fill="#030104" points="12,6.287 12,9.714 16,12 16,4   "/>
     <path id="svg_14" fill="#030104" d="m10,4l-9,0c-0.553,0 -1,0.447 -1,1l0,6c0,0.553 0.447,1 1,1l9,0c0.553,0 1,-0.447 1,-1l0,-1l0,-0.857l0,-2.286l0,-0.857l0,-1c0,-0.552 -0.447,-1 -1,-1z"/>
    </g>
   </g>
   <g transform="matrix(64.00015258798157,0,0,64.00015258798157,0,0) " id="svg_15"/>
   <g transform="matrix(64.00015258798157,0,0,64.00015258798157,0,0) " id="svg_16"/>
   <g transform="matrix(64.00015258798157,0,0,64.00015258798157,0,0) " id="svg_17"/>
   <g transform="matrix(64.00015258798157,0,0,64.00015258798157,0,0) " id="svg_18"/>
   <g transform="matrix(64.00015258798157,0,0,64.00015258798157,0,0) " id="svg_20"/>
   <g transform="matrix(64.00015258798157,0,0,64.00015258798157,0,0) " id="svg_21"/>
   <g transform="matrix(64.00015258798157,0,0,64.00015258798157,0,0) " id="svg_22"/>
   <g transform="matrix(64.00015258798157,0,0,64.00015258798157,0,0) " id="svg_23"/>
   <g id="svg_24"/>
   <g id="svg_25"/>
   <g transform="matrix(64.00015258798157,0,0,64.00015258798157,0,0) " id="svg_26"/>
   <g id="svg_27"/>
   <g id="svg_28"/>
   <g id="svg_29"/>
   <g id="svg_30"/>
  </g>
  <g id="svg_56">
   <g transform="matrix(3.8744211266749624,0,0,3.9175020624799406,96.64769909511963,63.724775098764695) " id="svg_37">
    <g id="svg_38">
     <polygon id="svg_39" fill="#030104" points="-4.168359398841858,-2.025644302368164 -4.168359398841858,1.4013562202453613 -0.16836130619049072,3.6873557567596436 -0.16836130619049072,-4.312644958496094 "/>
     <path id="svg_40" fill="#030104" d="m-6.16836,-4.312644l-9,0c-0.553,0 -1,0.447 -1,1l0,6c0,0.553 0.447,1 1,1l9,0c0.553,0 1,-0.447 1,-1l0,-1l0,-0.857l0,-2.286l0,-0.857l0,-1c0,-0.552 -0.447,-1 -1,-1z"/>
    </g>
   </g>
   <g transform="matrix(64.00015258798157,0,0,64.00015258798157,0,0) " id="svg_41"/>
   <g transform="matrix(64.00015258798157,0,0,64.00015258798157,0,0) " id="svg_42"/>
   <g transform="matrix(64.00015258798157,0,0,64.00015258798157,0,0) " id="svg_43"/>
   <g transform="matrix(64.00015258798157,0,0,64.00015258798157,0,0) " id="svg_44"/>
   <g transform="matrix(64.00015258798157,0,0,64.00015258798157,0,0) " id="svg_45"/>
   <g transform="matrix(64.00015258798157,0,0,64.00015258798157,0,0) " id="svg_46"/>
   <g transform="matrix(64.00015258798157,0,0,64.00015258798157,0,0) " id="svg_47"/>
   <g transform="matrix(64.00015258798157,0,0,64.00015258798157,0,0) " id="svg_48"/>
   <g transform="matrix(64.00015258798157,0,0,64.00015258798157,0,0) " id="svg_49"/>
   <g transform="matrix(64.00015258798157,0,0,64.00015258798157,0,0) " id="svg_50"/>
   <g transform="matrix(64.00015258798157,0,0,64.00015258798157,0,0) " id="svg_51"/>
   <g transform="matrix(64.00015258798157,0,0,64.00015258798157,0,0) " id="svg_52"/>
   <g transform="matrix(64.00015258798157,0,0,64.00015258798157,0,0) " id="svg_53"/>
   <g transform="matrix(64.00015258798157,0,0,64.00015258798157,0,0) " id="svg_54"/>
   <g transform="matrix(64.00015258798157,0,0,64.00015258798157,0,0) " id="svg_55"/>
  </g>
  <rect stroke="#000" fill="#000000" stroke-width="1.5" x="8.666694" y="29.151091" width="110.666612" height="6.33333" id="svg_57" rx="3"/>
 </g>
</svg>