<svg width="128" height="128" xmlns="http://www.w3.org/2000/svg">
 <!-- Created with SVG Editor - http://github.com/mzalive/SVG Editor/ -->

 <g>
  <title>background</title>
  <rect fill="none" id="canvas_background" height="130" width="130" y="-1" x="-1"/>
  <g display="none" overflow="visible" y="0" x="0" height="100%" width="100%" id="canvasGrid">
   <rect fill="url(#gridpattern)" stroke-width="0" y="0" x="0" height="100%" width="100%"/>
  </g>
 </g>
 <g>
  <title>Layer 1</title>
  <rect stroke="#000" rx="3" id="svg_1" height="6.33333" width="110.333277" y="85.817699" x="8.833363" stroke-width="1.5" fill="#000000"/>
  <rect stroke="#000" rx="3" id="svg_10" height="5.33333" width="110.333277" y="36.48439" x="8.833362" stroke-width="1.5" fill="#000000"/>
  <rect stroke="#000" id="svg_12" height="48.999988" width="6.333333" y="39.500008" x="112.833307" stroke-width="1.5" fill="#000000"/>
  <rect stroke="#000" rx="2" id="svg_14" height="7.66666" width="99.999935" y="41.817715" x="14.166701" stroke-opacity="null" stroke-width="1.5" fill="#000000"/>
  <line stroke-linecap="null" stroke-linejoin="null" id="svg_19" y2="103.817686" x2="148.666625" y1="104.151019" x1="148.666625" stroke-opacity="null" stroke="#000" fill="none"/>
  <defs>
   <style>.cls-1{fill:none;}</style>
  </defs>
  <rect stroke="#000" rx="2" id="svg_34" height="12.666659" width="100.333287" y="59.151037" x="13.666701" stroke-opacity="null" stroke-width="1.5" fill="#000000"/>
  <rect stroke="#000" id="svg_35" height="48.999988" width="6.333333" y="39.833341" x="8.833363" stroke-width="1.5" fill="#000000"/>
  <rect stroke="#000" rx="2" id="svg_37" height="6.666663" width="100.333287" y="80.81769" x="13.333368" stroke-opacity="null" stroke-width="1.5" fill="#000000"/>
  <rect stroke="#000" rx="2" id="svg_38" height="37.333311" width="9.333348" y="47.151044" x="14.000034" stroke-opacity="null" stroke-width="1.5" fill="#000000"/>
  <rect stroke="#000" rx="2" id="svg_39" height="16.666653" width="9.333348" y="47.817711" x="103.333317" stroke-opacity="null" stroke-width="1.5" fill="#000000"/>
  <rect stroke="#000" rx="2" id="svg_40" height="16.666653" width="52.333343" y="68.151033" x="60.999999" stroke-opacity="null" stroke-width="1.5" fill="#000000"/>
 </g>
</svg>