<svg width="128" height="128" xmlns="http://www.w3.org/2000/svg">
 <!-- Created with SVG Editor - http://github.com/mzalive/SVG Editor/ -->

 <g>
  <title>background</title>
  <rect fill="none" id="canvas_background" height="130" width="130" y="-1" x="-1"/>
  <g display="none" overflow="visible" y="0" x="0" height="100%" width="100%" id="canvasGrid">
   <rect fill="url(#gridpattern)" stroke-width="0" y="0" x="0" height="100%" width="100%"/>
  </g>
 </g>
 <g>
  <title>Layer 1</title>
  <rect stroke="#000" rx="5" id="svg_1" height="6.33333" width="110.333277" y="110.484351" x="8.50003" stroke-width="1.5" fill="#000000"/>
  <rect stroke="#000" rx="5" id="svg_10" height="5.33333" width="110.333277" y="16.484401" x="8.50003" stroke-width="1.5" fill="#000000"/>
  <rect stroke="#000" id="svg_11" height="92.666625" width="6.333333" y="20.151066" x="8.50003" stroke-width="1.5" fill="#000000"/>
  <rect stroke="#000" id="svg_12" height="92.666625" width="6.333333" y="19.151067" x="112.499974" stroke-width="1.5" fill="#000000"/>
  <rect rx="2" stroke="#000" id="svg_14" height="5.999994" width="65.66663" y="97.151018" x="33.000023" stroke-opacity="null" stroke-width="1.5" fill="#000000"/>
  <line stroke-linecap="null" stroke-linejoin="null" id="svg_19" y2="103.817686" x2="148.666625" y1="104.151019" x1="148.666625" stroke-opacity="null" stroke="#000" fill="none"/>
  <defs>
   <style>.cls-1{fill:none;}</style>
  </defs>
  <g stroke="null" id="svg_32">
   <g stroke="null" transform="matrix(4.250025991410781,0,0,3.3333605662675847,172.472267840756,166.76719134156386) " id="svg_25">
    <path stroke="null" id="svg_27" d="m-15.601161,-23.129881l-20,0a3,3 0 0 1 -3,-3l0,-16a3,3 0 0 1 3,-3l20,0a3,3 0 0 1 3,3l0,16a3,3 0 0 1 -3,3zm-20,-20a1,1 0 0 0 -1,1l0,16a1,1 0 0 0 1,1l20,0a1,1 0 0 0 1,-1l0,-16a1,1 0 0 0 -1,-1l-20,0z"/>
    <path stroke="null" id="svg_28" d="m-20.601161,-35.129881a3,3 0 1 1 3,-3a3,3 0 0 1 -3,3zm0,-4a1,1 0 1 0 1,1a1,1 0 0 0 -1,-1z"/>
    <path stroke="null" id="svg_29" d="m-15.601161,-23.129881a1,1 0 0 1 -0.83,-0.45l-4.34,-6.5a1,1 0 0 0 -1.66,0l-0.34,0.5a1,1 0 0 1 -1.66,-1.1l0.33,-0.51a3,3 0 0 1 5,0l4.33,6.51a1,1 0 0 1 -0.28,1.38a0.94,0.94 0 0 1 -0.55,0.17z"/>
    <path stroke="null" id="svg_30" d="m-35.601161,-23.129881a1,1 0 0 1 -0.54,-0.16a1,1 0 0 1 -0.3,-1.38l6.23,-9.62a3,3 0 0 1 2.5,-1.37l0,0a3,3 0 0 1 2.5,1.34l6.42,9.64a1,1 0 0 1 -1.66,1.1l-6.43,-9.63a1,1 0 0 0 -0.83,-0.45l0,0a1,1 0 0 0 -0.83,0.46l-6.22,9.61a1,1 0 0 1 -0.84,0.46z"/>
   </g>
   <g stroke="null" transform="matrix(4.250025991410781,0,0,3.3333605662675847,172.472267840756,166.76719134156386) " id="svg_24">
    <rect stroke="null" x="-41.601161" y="-50.129881" id="svg_31" width="32" height="32" class="cls-1"/>
   </g>
  </g>
  <rect stroke="#000" rx="6" id="svg_33" height="6.33333" width="108.333276" y="83.151033" x="9.166698" stroke-width="1.5" fill="#000000"/>
 </g>
</svg>